<svg xmlns="http://www.w3.org/2000/svg" xmlns:xlink="http://www.w3.org/1999/xlink" version="1.1" style="shape-rendering:geometricPrecision; text-rendering:geometricPrecision; image-rendering:optimizeQuality; fill-rule:evenodd; clip-rule:evenodd" viewBox="-0.5 -0.5 100 133">
<g><path style="opacity:1" fill="#fcfdfa" d="M -0.5,-0.5 C 4.83333,-0.5 10.1667,-0.5 15.5,-0.5C 15.5,2.16667 15.5,4.83333 15.5,7.5C 15.5,7.83333 15.5,8.16667 15.5,8.5C 13.437,10.449 12.1036,12.7823 11.5,15.5C 9.6007,17.4634 7.26737,18.9634 4.5,20C 3.77608,22.6699 2.10941,24.1699 -0.5,24.5C -0.5,16.1667 -0.5,7.83333 -0.5,-0.5 Z"/></g>
<g><path style="opacity:1" fill="#96724e" d="M 41.5,-0.5 C 47.8333,-0.5 54.1667,-0.5 60.5,-0.5C 60.7706,1.43046 61.7706,2.76379 63.5,3.5C 57.1185,2.9205 50.7852,2.25383 44.5,1.5C 43.5,0.833333 42.5,0.166667 41.5,-0.5 Z"/></g>
<g><path style="opacity:1" fill="#512d0f" d="M 79.5,-0.5 C 86.1667,-0.5 92.8333,-0.5 99.5,-0.5C 99.5,2.83333 99.5,6.16667 99.5,9.5C 96.1667,9.5 92.8333,9.5 89.5,9.5C 87.325,7.42589 84.6583,6.09256 81.5,5.5C 79.8955,3.82106 79.2289,1.82106 79.5,-0.5 Z"/></g>
<g><path style="opacity:1" fill="#8a6541" d="M 60.5,-0.5 C 61.5,-0.5 62.5,-0.5 63.5,-0.5C 69.0796,1.62311 74.4129,4.28978 79.5,7.5C 78.8333,7.5 78.1667,7.5 77.5,7.5C 72.5878,6.58409 67.9211,5.25076 63.5,3.5C 61.7706,2.76379 60.7706,1.43046 60.5,-0.5 Z"/></g>
<g><path style="opacity:1" fill="#643f20" d="M 63.5,-0.5 C 68.8333,-0.5 74.1667,-0.5 79.5,-0.5C 79.2289,1.82106 79.8955,3.82106 81.5,5.5C 84.6583,6.09256 87.325,7.42589 89.5,9.5C 88.5,9.5 87.5,9.5 86.5,9.5C 85.1805,8.05817 83.5138,7.39151 81.5,7.5C 80.8333,7.5 80.1667,7.5 79.5,7.5C 74.4129,4.28978 69.0796,1.62311 63.5,-0.5 Z"/></g>
<g><path style="opacity:1" fill="#fdedb4" d="M 15.5,-0.5 C 16.1667,-0.5 16.8333,-0.5 17.5,-0.5C 17.6633,1.85684 17.4966,4.19018 17,6.5C 16.6174,7.05596 16.1174,7.38929 15.5,7.5C 15.5,4.83333 15.5,2.16667 15.5,-0.5 Z"/></g>
<g><path style="opacity:1" fill="#b58a5e" d="M 31.5,-0.5 C 34.8333,-0.5 38.1667,-0.5 41.5,-0.5C 42.5,0.166667 43.5,0.833333 44.5,1.5C 43.5,1.5 42.5,1.5 41.5,1.5C 41.7413,3.88629 41.0746,5.88629 39.5,7.5C 38.7611,7.36899 38.0944,7.53566 37.5,8C 41.5059,10.0657 41.1726,11.5657 36.5,12.5C 37.1272,13.4168 37.4606,14.4168 37.5,15.5C 36.7611,15.369 36.0944,15.5357 35.5,16C 36.7305,17.4048 38.0639,18.5714 39.5,19.5C 38.0689,19.8807 37.2355,20.8807 37,22.5C 35.3499,19.894 33.8499,19.894 32.5,22.5C 31.1751,21.0474 30.3418,21.3808 30,23.5C 29.8047,21.7928 29.8047,20.1261 30,18.5C 29.1475,20.1247 28.1475,20.4581 27,19.5C 25.6319,20.9931 25.4652,22.4931 26.5,24C 25.5,24.8333 24.5,25.6667 23.5,26.5C 24.2458,27.7362 24.5792,29.0695 24.5,30.5C 21.2027,30.3287 20.8694,30.9954 23.5,32.5C 21.3274,35.1722 18.8274,37.5055 16,39.5C 15.6667,39.1667 15.3333,38.8333 15,38.5C 13.9914,40.0249 13.4914,41.6916 13.5,43.5C 10.6118,43.2196 9.11183,44.5529 9,47.5C 6.39664,50.2775 3.22997,51.9442 -0.5,52.5C -0.5,51.8333 -0.5,51.1667 -0.5,50.5C 3.51732,49.3144 6.01732,46.6477 7,42.5C 7.33333,42.8333 7.66667,43.1667 8,43.5C 9.06035,40.3343 11.227,38.3343 14.5,37.5C 15.4841,34.5719 15.8174,31.5719 15.5,28.5C 18.1676,26.6645 20.3343,24.3312 22,21.5C 22.3685,18.3967 23.7018,15.3967 26,12.5C 26.3333,12.8333 26.6667,13.1667 27,13.5C 31.0438,9.7406 32.5438,5.07393 31.5,-0.5 Z"/></g>
<g><path style="opacity:1" fill="#643c1e" d="M 89.5,9.5 C 92.8333,9.5 96.1667,9.5 99.5,9.5C 99.5,10.8333 99.5,12.1667 99.5,13.5C 98.1667,13.1667 96.8333,12.8333 95.5,12.5C 93.1815,12.0075 91.1815,11.0075 89.5,9.5 Z"/></g>
<g><path style="opacity:1" fill="#d8af7b" d="M 21.5,-0.5 C 22.1667,-0.5 22.8333,-0.5 23.5,-0.5C 23.5,2.16667 23.5,4.83333 23.5,7.5C 22.5028,7.47008 21.8361,7.97008 21.5,9C 20.4215,12.1489 19.4215,15.3155 18.5,18.5C 17.6431,19.4252 16.6431,20.0919 15.5,20.5C 15.5,18.8333 15.5,17.1667 15.5,15.5C 16.5,15.5 17.5,15.5 18.5,15.5C 20.0122,10.2718 21.0122,4.93843 21.5,-0.5 Z"/></g>
<g><path style="opacity:1" fill="#b1895f" d="M 44.5,1.5 C 50.7852,2.25383 57.1185,2.9205 63.5,3.5C 67.9211,5.25076 72.5878,6.58409 77.5,7.5C 77.4142,8.4959 77.7476,9.32924 78.5,10C 77.8333,10.6667 77.1667,11.3333 76.5,12C 72.2695,13.2899 67.9362,13.7899 63.5,13.5C 61.8333,12.8333 60.1667,12.1667 58.5,11.5C 62.8839,11.8256 67.2172,11.4922 71.5,10.5C 70.6872,9.18614 69.6872,8.01948 68.5,7C 61.5989,5.29403 54.5989,4.4607 47.5,4.5C 48.9008,8.21162 51.5675,10.545 55.5,11.5C 54.5,11.5 53.5,11.5 52.5,11.5C 52.5,12.5 52.5,13.5 52.5,14.5C 50.4727,14.6621 48.4727,14.4955 46.5,14C 44.603,11.2662 42.2697,9.09952 39.5,7.5C 41.0746,5.88629 41.7413,3.88629 41.5,1.5C 42.5,1.5 43.5,1.5 44.5,1.5 Z"/></g>
<g><path style="opacity:1" fill="#c7a174" d="M 58.5,11.5 C 57.5,11.5 56.5,11.5 55.5,11.5C 51.5675,10.545 48.9008,8.21162 47.5,4.5C 54.5989,4.4607 61.5989,5.29403 68.5,7C 69.6872,8.01948 70.6872,9.18614 71.5,10.5C 67.2172,11.4922 62.8839,11.8256 58.5,11.5 Z"/></g>
<g><path style="opacity:1" fill="#8a6242" d="M 86.5,9.5 C 87.5,9.5 88.5,9.5 89.5,9.5C 91.1815,11.0075 93.1815,12.0075 95.5,12.5C 96.2212,18.0981 93.5546,20.4314 87.5,19.5C 87.5,18.8333 87.5,18.1667 87.5,17.5C 88.2778,16.8444 88.9444,16.0111 89.5,15C 88.8758,12.9149 87.8758,11.0816 86.5,9.5 Z"/></g>
<g><path style="opacity:1" fill="#aa8056" d="M 39.5,7.5 C 42.2697,9.09952 44.603,11.2662 46.5,14C 48.4727,14.4955 50.4727,14.6621 52.5,14.5C 52.5,13.5 52.5,12.5 52.5,11.5C 53.5,11.5 54.5,11.5 55.5,11.5C 56.5,11.5 57.5,11.5 58.5,11.5C 60.1667,12.1667 61.8333,12.8333 63.5,13.5C 61.2547,13.5412 60.5881,14.3745 61.5,16C 59.6161,16.2163 57.9494,16.883 56.5,18C 57.1383,19.7067 57.1383,21.54 56.5,23.5C 56.1667,23.5 55.8333,23.5 55.5,23.5C 49.5323,20.8314 43.5323,18.1648 37.5,15.5C 37.4606,14.4168 37.1272,13.4168 36.5,12.5C 41.1726,11.5657 41.5059,10.0657 37.5,8C 38.0944,7.53566 38.7611,7.36899 39.5,7.5 Z"/></g>
<g><path style="opacity:1" fill="#be9465" d="M 23.5,-0.5 C 26.1667,-0.5 28.8333,-0.5 31.5,-0.5C 32.5438,5.07393 31.0438,9.7406 27,13.5C 26.6667,13.1667 26.3333,12.8333 26,12.5C 23.7018,15.3967 22.3685,18.3967 22,21.5C 20.3343,24.3312 18.1676,26.6645 15.5,28.5C 15.5,27.1667 15.5,25.8333 15.5,24.5C 17.4673,22.6961 19.3007,20.6961 21,18.5C 21.236,14.6609 22.0693,10.9942 23.5,7.5C 23.5,4.83333 23.5,2.16667 23.5,-0.5 Z"/></g>
<g><path style="opacity:1" fill="#efdcac" d="M 15.5,8.5 C 14.338,12.7664 13.1713,17.0998 12,21.5C 10.6703,22.5822 9.17028,23.2488 7.5,23.5C 7.5,22.8333 7.5,22.1667 7.5,21.5C 9.25156,19.7541 10.5849,17.7541 11.5,15.5C 12.1036,12.7823 13.437,10.449 15.5,8.5 Z"/></g>
<g><path style="opacity:1" fill="#976b46" d="M 81.5,7.5 C 83.5138,7.39151 85.1805,8.05817 86.5,9.5C 87.8758,11.0816 88.8758,12.9149 89.5,15C 88.9444,16.0111 88.2778,16.8444 87.5,17.5C 82.2384,17.8047 77.0717,17.4714 72,16.5C 71.5172,17.448 71.3505,18.448 71.5,19.5C 68.316,19.3322 67.816,20.6655 70,23.5C 71.419,25.3359 72.5857,27.3359 73.5,29.5C 74.325,30.3857 75.325,30.719 76.5,30.5C 76.0217,33.2776 77.0217,35.2776 79.5,36.5C 76.0202,37.8056 72.6868,37.8056 69.5,36.5C 68.8333,35.8333 68.1667,35.1667 67.5,34.5C 69.9491,35.0574 72.2825,35.0574 74.5,34.5C 70.7934,30.2818 66.6267,25.9485 62,21.5C 61.2195,20.0563 61.3861,18.723 62.5,17.5C 67.6565,15.8562 72.9899,14.8562 78.5,14.5C 79.1667,14.8333 79.8333,15.1667 80.5,15.5C 81.9842,13.9263 83.6508,12.593 85.5,11.5C 84.1335,10.16 82.8001,8.82669 81.5,7.5 Z"/></g>
<g><path style="opacity:1" fill="#fefbed" d="M 11.5,15.5 C 10.5849,17.7541 9.25156,19.7541 7.5,21.5C 5.70415,22.7927 4.03748,24.2927 2.5,26C 1.55198,26.4828 0.551975,26.6495 -0.5,26.5C -0.5,25.8333 -0.5,25.1667 -0.5,24.5C 2.10941,24.1699 3.77608,22.6699 4.5,20C 7.26737,18.9634 9.6007,17.4634 11.5,15.5 Z"/></g>
<g><path style="opacity:1" fill="#885d39" d="M 87.5,17.5 C 87.5,18.1667 87.5,18.8333 87.5,19.5C 85.5,19.5 83.5,19.5 81.5,19.5C 81.5258,23.3669 80.3591,24.0336 78,21.5C 76.3783,21.9541 75.2116,22.9541 74.5,24.5C 76.668,26.8324 78.3347,29.499 79.5,32.5C 83.6252,33.4589 86.2919,35.9589 87.5,40C 84.3812,41.4051 81.0479,41.9051 77.5,41.5C 73.8174,40.3255 70.4841,38.6588 67.5,36.5C 68.1667,36.5 68.8333,36.5 69.5,36.5C 72.6868,37.8056 76.0202,37.8056 79.5,36.5C 77.0217,35.2776 76.0217,33.2776 76.5,30.5C 75.325,30.719 74.325,30.3857 73.5,29.5C 72.5857,27.3359 71.419,25.3359 70,23.5C 67.816,20.6655 68.316,19.3322 71.5,19.5C 71.3505,18.448 71.5172,17.448 72,16.5C 77.0717,17.4714 82.2384,17.8047 87.5,17.5 Z"/></g>
<g><path style="opacity:1" fill="#c99e73" d="M 37.5,15.5 C 43.5323,18.1648 49.5323,20.8314 55.5,23.5C 57.1859,26.5367 56.1859,27.87 52.5,27.5C 51.609,26.8902 50.609,26.5569 49.5,26.5C 47.3649,24.9291 45.0316,23.5957 42.5,22.5C 41.6935,21.2719 40.6935,20.2719 39.5,19.5C 38.0639,18.5714 36.7305,17.4048 35.5,16C 36.0944,15.5357 36.7611,15.369 37.5,15.5 Z"/></g>
<g><path style="opacity:1" fill="#a87b51" d="M 39.5,19.5 C 40.6935,20.2719 41.6935,21.2719 42.5,22.5C 41.7611,22.369 41.0944,22.5357 40.5,23C 41.7112,23.8928 41.7112,24.7261 40.5,25.5C 39.6043,24.4937 38.9377,24.4937 38.5,25.5C 39.1667,26.8333 39.8333,28.1667 40.5,29.5C 40.1543,30.6956 39.6543,30.6956 39,29.5C 38.5357,30.0944 38.369,30.7611 38.5,31.5C 35.9959,30.4161 33.6626,29.0828 31.5,27.5C 31.366,25.7085 31.6993,24.0418 32.5,22.5C 33.8499,19.894 35.3499,19.894 37,22.5C 37.2355,20.8807 38.0689,19.8807 39.5,19.5 Z"/></g>
<g><path style="opacity:1" fill="#724829" d="M 99.5,18.5 C 99.5,20.1667 99.5,21.8333 99.5,23.5C 96.8216,25.4398 93.8216,26.9398 90.5,28C 92.643,30.7578 93.8097,33.9245 94,37.5C 96.7889,40.0289 98.2889,43.1956 98.5,47C 96.5273,47.4955 94.5273,47.6621 92.5,47.5C 87.3554,45.9369 82.3554,44.2702 77.5,42.5C 81.8814,42.3718 86.2147,42.7051 90.5,43.5C 90.6679,39.2517 89.0012,36.085 85.5,34C 88.113,31.2047 88.113,28.3714 85.5,25.5C 86.2458,24.2638 86.5792,22.9305 86.5,21.5C 89.5184,21.6646 92.5184,21.498 95.5,21C 96.4709,19.5187 97.8042,18.6854 99.5,18.5 Z"/></g>
<g><path style="opacity:1" fill="#e7c790" d="M 17.5,-0.5 C 18.8333,-0.5 20.1667,-0.5 21.5,-0.5C 21.0122,4.93843 20.0122,10.2718 18.5,15.5C 17.5,15.5 16.5,15.5 15.5,15.5C 15.5,17.1667 15.5,18.8333 15.5,20.5C 14.0937,20.9731 13.427,21.9731 13.5,23.5C 11.3875,24.4396 9.38754,25.6063 7.5,27C 5.96317,28.1096 5.2965,29.6096 5.5,31.5C 3.5,31.5 1.5,31.5 -0.5,31.5C -0.5,30.5 -0.5,29.5 -0.5,28.5C 2.68106,27.6515 5.34773,25.9848 7.5,23.5C 9.17028,23.2488 10.6703,22.5822 12,21.5C 13.1713,17.0998 14.338,12.7664 15.5,8.5C 15.5,8.16667 15.5,7.83333 15.5,7.5C 16.1174,7.38929 16.6174,7.05596 17,6.5C 17.4966,4.19018 17.6633,1.85684 17.5,-0.5 Z"/></g>
<g><path style="opacity:1" fill="#a37851" d="M 77.5,7.5 C 78.1667,7.5 78.8333,7.5 79.5,7.5C 80.1667,7.5 80.8333,7.5 81.5,7.5C 82.8001,8.82669 84.1335,10.16 85.5,11.5C 83.6508,12.593 81.9842,13.9263 80.5,15.5C 79.8333,15.1667 79.1667,14.8333 78.5,14.5C 72.9899,14.8562 67.6565,15.8562 62.5,17.5C 61.3861,18.723 61.2195,20.0563 62,21.5C 66.6267,25.9485 70.7934,30.2818 74.5,34.5C 72.2825,35.0574 69.9491,35.0574 67.5,34.5C 64.1803,33.6068 61.1803,32.2735 58.5,30.5C 64.569,32.7164 66.2357,31.2164 63.5,26C 61.3496,24.5886 59.0163,23.7553 56.5,23.5C 57.1383,21.54 57.1383,19.7067 56.5,18C 57.9494,16.883 59.6161,16.2163 61.5,16C 60.5881,14.3745 61.2547,13.5412 63.5,13.5C 67.9362,13.7899 72.2695,13.2899 76.5,12C 77.1667,11.3333 77.8333,10.6667 78.5,10C 77.7476,9.32924 77.4142,8.4959 77.5,7.5 Z"/></g>
<g><path style="opacity:1" fill="#f8e9c6" d="M 7.5,21.5 C 7.5,22.1667 7.5,22.8333 7.5,23.5C 5.34773,25.9848 2.68106,27.6515 -0.5,28.5C -0.5,27.8333 -0.5,27.1667 -0.5,26.5C 0.551975,26.6495 1.55198,26.4828 2.5,26C 4.03748,24.2927 5.70415,22.7927 7.5,21.5 Z"/></g>
<g><path style="opacity:1" fill="#b3865d" d="M 32.5,22.5 C 31.6993,24.0418 31.366,25.7085 31.5,27.5C 30.6236,27.3691 29.9569,27.7025 29.5,28.5C 30.2427,29.1818 30.9094,29.8485 31.5,30.5C 28.9104,30.9182 26.5771,31.9182 24.5,33.5C 25.7178,34.8027 25.3845,35.8027 23.5,36.5C 24.6119,37.2652 25.2786,38.2652 25.5,39.5C 24.8333,39.5 24.5,39.8333 24.5,40.5C 22.8621,39.8411 21.1955,39.1744 19.5,38.5C 19.6622,40.6311 18.3289,41.6311 15.5,41.5C 14.7057,43.8728 13.7057,46.2062 12.5,48.5C 9.35418,50.4813 6.35418,52.648 3.5,55C 2.20677,55.49 0.873441,55.6567 -0.5,55.5C -0.5,54.5 -0.5,53.5 -0.5,52.5C 3.22997,51.9442 6.39664,50.2775 9,47.5C 9.11183,44.5529 10.6118,43.2196 13.5,43.5C 13.4914,41.6916 13.9914,40.0249 15,38.5C 15.3333,38.8333 15.6667,39.1667 16,39.5C 18.8274,37.5055 21.3274,35.1722 23.5,32.5C 20.8694,30.9954 21.2027,30.3287 24.5,30.5C 24.5792,29.0695 24.2458,27.7362 23.5,26.5C 24.5,25.6667 25.5,24.8333 26.5,24C 25.4652,22.4931 25.6319,20.9931 27,19.5C 28.1475,20.4581 29.1475,20.1247 30,18.5C 29.8047,20.1261 29.8047,21.7928 30,23.5C 30.3418,21.3808 31.1751,21.0474 32.5,22.5 Z"/></g>
<g><path style="opacity:1" fill="#9f7146" d="M 42.5,22.5 C 45.0316,23.5957 47.3649,24.9291 49.5,26.5C 47.5953,27.4642 46.5953,29.1309 46.5,31.5C 47.0463,33.1347 47.3796,34.8014 47.5,36.5C 46.3951,35.3995 45.0618,34.7329 43.5,34.5C 41.326,34.2503 39.6594,33.2503 38.5,31.5C 38.369,30.7611 38.5357,30.0944 39,29.5C 39.6543,30.6956 40.1543,30.6956 40.5,29.5C 39.8333,28.1667 39.1667,26.8333 38.5,25.5C 38.9377,24.4937 39.6043,24.4937 40.5,25.5C 41.7112,24.7261 41.7112,23.8928 40.5,23C 41.0944,22.5357 41.7611,22.369 42.5,22.5 Z"/></g>
<g><path style="opacity:1" fill="#b68a62" d="M 55.5,23.5 C 55.8333,23.5 56.1667,23.5 56.5,23.5C 59.0163,23.7553 61.3496,24.5886 63.5,26C 66.2357,31.2164 64.569,32.7164 58.5,30.5C 55.784,30.6138 53.784,29.6138 52.5,27.5C 56.1859,27.87 57.1859,26.5367 55.5,23.5 Z"/></g>
<g><path style="opacity:1" fill="#8f6237" d="M 49.5,26.5 C 50.609,26.5569 51.609,26.8902 52.5,27.5C 53.784,29.6138 55.784,30.6138 58.5,30.5C 61.1803,32.2735 64.1803,33.6068 67.5,34.5C 68.1667,35.1667 68.8333,35.8333 69.5,36.5C 68.8333,36.5 68.1667,36.5 67.5,36.5C 64.8495,35.5103 62.1828,34.5103 59.5,33.5C 57.853,34.2776 56.5196,35.4443 55.5,37C 56.448,37.4828 57.448,37.6495 58.5,37.5C 58.6036,39.7028 59.2702,41.7028 60.5,43.5C 58.8333,42.8333 57.1667,42.1667 55.5,41.5C 55.0269,40.0937 54.0269,39.427 52.5,39.5C 51.0209,38.241 49.3542,37.241 47.5,36.5C 47.3796,34.8014 47.0463,33.1347 46.5,31.5C 46.5953,29.1309 47.5953,27.4642 49.5,26.5 Z"/></g>
<g><path style="opacity:1" fill="#683f22" d="M 99.5,23.5 C 99.5,32.1667 99.5,40.8333 99.5,49.5C 95.4338,49.693 91.4338,49.3597 87.5,48.5C 87.5,48.1667 87.5,47.8333 87.5,47.5C 89.1667,47.5 90.8333,47.5 92.5,47.5C 94.5273,47.6621 96.5273,47.4955 98.5,47C 98.2889,43.1956 96.7889,40.0289 94,37.5C 93.8097,33.9245 92.643,30.7578 90.5,28C 93.8216,26.9398 96.8216,25.4398 99.5,23.5 Z"/></g>
<g><path style="opacity:1" fill="#d9b484" d="M 13.5,23.5 C 9.97787,29.7724 5.3112,35.1057 -0.5,39.5C -0.5,36.8333 -0.5,34.1667 -0.5,31.5C 1.5,31.5 3.5,31.5 5.5,31.5C 5.2965,29.6096 5.96317,28.1096 7.5,27C 9.38754,25.6063 11.3875,24.4396 13.5,23.5 Z"/></g>
<g><path style="opacity:1" fill="#bc8f63" d="M 31.5,27.5 C 33.6626,29.0828 35.9959,30.4161 38.5,31.5C 39.6594,33.2503 41.326,34.2503 43.5,34.5C 48.5307,40.7888 46.864,42.1221 38.5,38.5C 36.6103,35.3456 34.277,32.6789 31.5,30.5C 30.9094,29.8485 30.2427,29.1818 29.5,28.5C 29.9569,27.7025 30.6236,27.3691 31.5,27.5 Z"/></g>
<g><path style="opacity:1" fill="#bd936b" d="M 15.5,24.5 C 15.5,25.8333 15.5,27.1667 15.5,28.5C 15.8174,31.5719 15.4841,34.5719 14.5,37.5C 11.227,38.3343 9.06035,40.3343 8,43.5C 7.66667,43.1667 7.33333,42.8333 7,42.5C 6.01732,46.6477 3.51732,49.3144 -0.5,50.5C -0.5,49.5 -0.5,48.5 -0.5,47.5C 1.04432,47.2969 2.37765,46.6302 3.5,45.5C 4.77025,42.8944 6.43692,40.561 8.5,38.5C 9.2305,35.8908 9.7305,33.2241 10,30.5C 12.068,28.6038 13.9013,26.6038 15.5,24.5 Z"/></g>
<g><path style="opacity:1" fill="#7e5332" d="M 95.5,12.5 C 96.8333,12.8333 98.1667,13.1667 99.5,13.5C 99.5,15.1667 99.5,16.8333 99.5,18.5C 97.8042,18.6854 96.4709,19.5187 95.5,21C 92.5184,21.498 89.5184,21.6646 86.5,21.5C 86.5792,22.9305 86.2458,24.2638 85.5,25.5C 88.113,28.3714 88.113,31.2047 85.5,34C 89.0012,36.085 90.6679,39.2517 90.5,43.5C 86.2147,42.7051 81.8814,42.3718 77.5,42.5C 77.5,42.1667 77.5,41.8333 77.5,41.5C 81.0479,41.9051 84.3812,41.4051 87.5,40C 86.2919,35.9589 83.6252,33.4589 79.5,32.5C 78.3347,29.499 76.668,26.8324 74.5,24.5C 75.2116,22.9541 76.3783,21.9541 78,21.5C 80.3591,24.0336 81.5258,23.3669 81.5,19.5C 83.5,19.5 85.5,19.5 87.5,19.5C 93.5546,20.4314 96.2212,18.0981 95.5,12.5 Z"/></g>
<g><path style="opacity:1" fill="#c69f72" d="M 23.5,7.5 C 22.0693,10.9942 21.236,14.6609 21,18.5C 19.3007,20.6961 17.4673,22.6961 15.5,24.5C 13.9013,26.6038 12.068,28.6038 10,30.5C 9.7305,33.2241 9.2305,35.8908 8.5,38.5C 6.43692,40.561 4.77025,42.8944 3.5,45.5C 2.37765,46.6302 1.04432,47.2969 -0.5,47.5C -0.5,44.8333 -0.5,42.1667 -0.5,39.5C 5.3112,35.1057 9.97787,29.7724 13.5,23.5C 13.427,21.9731 14.0937,20.9731 15.5,20.5C 16.6431,20.0919 17.6431,19.4252 18.5,18.5C 19.4215,15.3155 20.4215,12.1489 21.5,9C 21.8361,7.97008 22.5028,7.47008 23.5,7.5 Z"/></g>
<g><path style="opacity:1" fill="#ab7f53" d="M 31.5,30.5 C 34.277,32.6789 36.6103,35.3456 38.5,38.5C 46.864,42.1221 48.5307,40.7888 43.5,34.5C 45.0618,34.7329 46.3951,35.3995 47.5,36.5C 49.3542,37.241 51.0209,38.241 52.5,39.5C 52.3601,41.1238 53.0267,42.2904 54.5,43C 54.1667,43.3333 53.8333,43.6667 53.5,44C 49.9978,44.6942 46.6645,44.1942 43.5,42.5C 42.8333,42.6667 42.1667,42.8333 41.5,43C 42.3366,44.0113 42.67,45.1779 42.5,46.5C 41.5,46.5 40.5,46.5 39.5,46.5C 39.9143,49.7431 40.9143,52.7431 42.5,55.5C 42.1667,55.5 41.8333,55.5 41.5,55.5C 36.8333,49.5 31.5,44.1667 25.5,39.5C 25.2786,38.2652 24.6119,37.2652 23.5,36.5C 25.3845,35.8027 25.7178,34.8027 24.5,33.5C 26.5771,31.9182 28.9104,30.9182 31.5,30.5 Z"/></g>
<g><path style="opacity:1" fill="#a3764b" d="M 52.5,39.5 C 54.0269,39.427 55.0269,40.0937 55.5,41.5C 56.7401,42.973 57.7401,44.6396 58.5,46.5C 55.1565,47.7571 51.8231,47.7571 48.5,46.5C 47.1082,49.0076 46.1082,51.6742 45.5,54.5C 47.957,58.9615 49.957,63.6282 51.5,68.5C 50.1667,68.5 48.8333,68.5 47.5,68.5C 46.1667,67.8333 45.1667,66.8333 44.5,65.5C 44.5,65.1667 44.5,64.8333 44.5,64.5C 45.9953,64.5852 46.9953,63.9185 47.5,62.5C 45.5784,60.3134 43.9117,57.9801 42.5,55.5C 40.9143,52.7431 39.9143,49.7431 39.5,46.5C 40.5,46.5 41.5,46.5 42.5,46.5C 42.67,45.1779 42.3366,44.0113 41.5,43C 42.1667,42.8333 42.8333,42.6667 43.5,42.5C 46.6645,44.1942 49.9978,44.6942 53.5,44C 53.8333,43.6667 54.1667,43.3333 54.5,43C 53.0267,42.2904 52.3601,41.1238 52.5,39.5 Z"/></g>
<g><path style="opacity:1" fill="#966b41" d="M 55.5,41.5 C 57.1667,42.1667 58.8333,42.8333 60.5,43.5C 61.3065,44.7281 62.3065,45.7281 63.5,46.5C 63.7394,48.4672 63.4061,50.3005 62.5,52C 59.6956,52.4597 57.0289,51.9597 54.5,50.5C 53.5713,51.6888 53.238,53.0222 53.5,54.5C 54.5,54.5 55.5,54.5 56.5,54.5C 56.6495,55.552 56.4828,56.552 56,57.5C 55.6667,57.1667 55.3333,56.8333 55,56.5C 52.6263,59.8005 51.9596,63.4672 53,67.5C 54.7533,70.0048 56.2533,72.6714 57.5,75.5C 55.8125,76.568 54.1459,76.4014 52.5,75C 50.5626,72.9144 48.896,70.7478 47.5,68.5C 48.8333,68.5 50.1667,68.5 51.5,68.5C 49.957,63.6282 47.957,58.9615 45.5,54.5C 46.1082,51.6742 47.1082,49.0076 48.5,46.5C 51.8231,47.7571 55.1565,47.7571 58.5,46.5C 57.7401,44.6396 56.7401,42.973 55.5,41.5 Z"/></g>
<g><path style="opacity:1" fill="#ac7d54" d="M 24.5,40.5 C 26.5258,43.5178 28.5258,46.5178 30.5,49.5C 28.5891,49.4257 27.4224,48.4257 27,46.5C 25.4152,47.3757 24.4152,48.7091 24,50.5C 22.9125,48.0684 22.4125,48.4017 22.5,51.5C 20.8212,51.2852 19.8212,51.9519 19.5,53.5C 18.5178,52.8592 17.5178,52.1925 16.5,51.5C 15.7025,51.9569 15.3691,52.6236 15.5,53.5C 10.4257,56.5468 5.09236,59.2135 -0.5,61.5C -0.5,59.5 -0.5,57.5 -0.5,55.5C 0.873441,55.6567 2.20677,55.49 3.5,55C 6.35418,52.648 9.35418,50.4813 12.5,48.5C 13.7057,46.2062 14.7057,43.8728 15.5,41.5C 18.3289,41.6311 19.6622,40.6311 19.5,38.5C 21.1955,39.1744 22.8621,39.8411 24.5,40.5 Z"/></g>
<g><path style="opacity:1" fill="#9e6f45" d="M 30.5,49.5 C 30.1156,51.9294 29.449,54.2627 28.5,56.5C 29.5,56.5 30.5,56.5 31.5,56.5C 30.7642,62.3063 32.4308,62.9729 36.5,58.5C 37.4168,59.1272 38.4168,59.4606 39.5,59.5C 39.8333,60.1667 40.1667,60.8333 40.5,61.5C 38.857,61.4802 37.5237,62.1468 36.5,63.5C 34.9522,61.0776 33.2855,61.0776 31.5,63.5C 30.6143,62.675 30.281,61.675 30.5,60.5C 29.5,60.5 28.5,60.5 27.5,60.5C 27.5,59.1667 27.5,57.8333 27.5,56.5C 26.5,56.5 25.5,56.5 24.5,56.5C 24.6287,58.2161 24.962,59.8828 25.5,61.5C 23.1153,59.1162 21.1153,56.4495 19.5,53.5C 19.8212,51.9519 20.8212,51.2852 22.5,51.5C 22.4125,48.4017 22.9125,48.0684 24,50.5C 24.4152,48.7091 25.4152,47.3757 27,46.5C 27.4224,48.4257 28.5891,49.4257 30.5,49.5 Z"/></g>
<g><path style="opacity:1" fill="#603417" d="M 87.5,48.5 C 91.4338,49.3597 95.4338,49.693 99.5,49.5C 99.5,51.5 99.5,53.5 99.5,55.5C 98.1667,55.5 96.8333,55.5 95.5,55.5C 95.7913,61.248 95.7913,66.9146 95.5,72.5C 92.2152,73.3236 88.8818,73.8236 85.5,74C 85.0426,74.414 84.7093,74.914 84.5,75.5C 85.935,76.9285 86.935,78.5952 87.5,80.5C 83.3443,85.1043 82.6776,90.1043 85.5,95.5C 84.9634,98.643 83.9634,101.643 82.5,104.5C 81.675,105.386 80.675,105.719 79.5,105.5C 77.8333,105.5 76.1667,105.5 74.5,105.5C 74.69,103.041 73.69,101.374 71.5,100.5C 74.0115,100.838 76.3448,100.838 78.5,100.5C 79.2866,95.7283 79.62,91.0616 79.5,86.5C 79.0962,85.2436 78.4295,84.0769 77.5,83C 79.0017,81.248 80.0017,79.248 80.5,77C 79.0487,74.0467 77.3821,71.2133 75.5,68.5C 79.2143,68.4891 82.5476,66.9891 85.5,64C 87.1667,63.6667 88.8333,63.3333 90.5,63C 88.5526,59.9301 86.0526,57.4301 83,55.5C 80.7606,52.7369 81.094,50.4036 84,48.5C 85.2917,49.7911 86.4583,49.7911 87.5,48.5 Z"/></g>
<g><path style="opacity:1" fill="#895e35" d="M 63.5,46.5 C 64.8333,46.8333 66.1667,47.1667 67.5,47.5C 67.4208,48.9305 67.7542,50.2638 68.5,51.5C 66.9547,52.4519 65.288,52.7852 63.5,52.5C 63.719,53.675 63.3857,54.675 62.5,55.5C 61.2638,54.7542 59.9305,54.4208 58.5,54.5C 58.8333,56.5 59.1667,58.5 59.5,60.5C 58.0695,60.5792 56.7362,60.2458 55.5,59.5C 54.0542,60.1709 53.3875,61.3376 53.5,63C 58.2771,69.2244 62.2771,75.8911 65.5,83C 65.1667,83.5 64.8333,84 64.5,84.5C 62.9974,83.9478 61.3307,83.9478 59.5,84.5C 59.631,83.7611 59.4643,83.0944 59,82.5C 57.207,80.9752 55.3737,79.6418 53.5,78.5C 52.3367,75.7625 50.5033,74.7625 48,75.5C 43.3753,73.4591 38.5419,72.1258 33.5,71.5C 33.5,72.5 33.5,73.5 33.5,74.5C 32.0937,74.0269 31.427,73.0269 31.5,71.5C 31.5,69.8333 31.5,68.1667 31.5,66.5C 34.5788,66.2601 37.5788,66.5934 40.5,67.5C 41.5237,66.1468 42.857,65.4802 44.5,65.5C 45.1667,66.8333 46.1667,67.8333 47.5,68.5C 48.896,70.7478 50.5626,72.9144 52.5,75C 54.1459,76.4014 55.8125,76.568 57.5,75.5C 56.2533,72.6714 54.7533,70.0048 53,67.5C 51.9596,63.4672 52.6263,59.8005 55,56.5C 55.3333,56.8333 55.6667,57.1667 56,57.5C 56.4828,56.552 56.6495,55.552 56.5,54.5C 55.5,54.5 54.5,54.5 53.5,54.5C 53.238,53.0222 53.5713,51.6888 54.5,50.5C 57.0289,51.9597 59.6956,52.4597 62.5,52C 63.4061,50.3005 63.7394,48.4672 63.5,46.5 Z"/></g>
<g><path style="opacity:1" fill="#cfa177" d="M 25.5,39.5 C 31.5,44.1667 36.8333,49.5 41.5,55.5C 41.5394,56.5832 41.8728,57.5832 42.5,58.5C 41.675,59.3857 40.675,59.719 39.5,59.5C 36.5222,56.1866 33.5222,52.8533 30.5,49.5C 28.5258,46.5178 26.5258,43.5178 24.5,40.5C 24.5,39.8333 24.8333,39.5 25.5,39.5 Z"/></g>
<g><path style="opacity:1" fill="#80552d" d="M 67.5,47.5 C 68.8149,48.4756 70.1482,49.4756 71.5,50.5C 72.7111,51.7202 72.7111,52.8869 71.5,54C 72.1667,54.3333 72.8333,54.6667 73.5,55C 71.9825,56.6851 70.3159,58.1851 68.5,59.5C 67.2638,58.7542 65.9305,58.4208 64.5,58.5C 64.9629,61.4824 65.2962,64.4824 65.5,67.5C 65.5,67.8333 65.5,68.1667 65.5,68.5C 63.2402,71.5207 62.9069,74.8541 64.5,78.5C 65.552,78.3505 66.552,78.5172 67.5,79C 67.339,81.7917 67.0057,84.625 66.5,87.5C 64.1148,86.3385 61.7814,85.3385 59.5,84.5C 61.3307,83.9478 62.9974,83.9478 64.5,84.5C 64.8333,84 65.1667,83.5 65.5,83C 62.2771,75.8911 58.2771,69.2244 53.5,63C 53.3875,61.3376 54.0542,60.1709 55.5,59.5C 56.7362,60.2458 58.0695,60.5792 59.5,60.5C 59.1667,58.5 58.8333,56.5 58.5,54.5C 59.9305,54.4208 61.2638,54.7542 62.5,55.5C 63.3857,54.675 63.719,53.675 63.5,52.5C 65.288,52.7852 66.9547,52.4519 68.5,51.5C 67.7542,50.2638 67.4208,48.9305 67.5,47.5 Z"/></g>
<g><path style="opacity:1" fill="#7a4e27" d="M 67.5,36.5 C 70.4841,38.6588 73.8174,40.3255 77.5,41.5C 77.5,41.8333 77.5,42.1667 77.5,42.5C 75.326,42.0798 73.326,42.0798 71.5,42.5C 75.2126,44.3372 75.2126,45.8372 71.5,47C 73.6628,50.8283 75.6628,54.6616 77.5,58.5C 75.0194,58.3234 73.1861,59.3234 72,61.5C 71.6667,61.1667 71.3333,60.8333 71,60.5C 69.5894,63.2414 67.756,65.5747 65.5,67.5C 65.2962,64.4824 64.9629,61.4824 64.5,58.5C 65.9305,58.4208 67.2638,58.7542 68.5,59.5C 70.3159,58.1851 71.9825,56.6851 73.5,55C 72.8333,54.6667 72.1667,54.3333 71.5,54C 72.7111,52.8869 72.7111,51.7202 71.5,50.5C 70.1482,49.4756 68.8149,48.4756 67.5,47.5C 66.1667,47.1667 64.8333,46.8333 63.5,46.5C 62.3065,45.7281 61.3065,44.7281 60.5,43.5C 59.2702,41.7028 58.6036,39.7028 58.5,37.5C 57.448,37.6495 56.448,37.4828 55.5,37C 56.5196,35.4443 57.853,34.2776 59.5,33.5C 62.1828,34.5103 64.8495,35.5103 67.5,36.5 Z"/></g>
<g><path style="opacity:1" fill="#a5784e" d="M 30.5,49.5 C 33.5222,52.8533 36.5222,56.1866 39.5,59.5C 38.4168,59.4606 37.4168,59.1272 36.5,58.5C 32.4308,62.9729 30.7642,62.3063 31.5,56.5C 30.5,56.5 29.5,56.5 28.5,56.5C 29.449,54.2627 30.1156,51.9294 30.5,49.5 Z"/></g>
<g><path style="opacity:1" fill="#b98c62" d="M 41.5,55.5 C 41.8333,55.5 42.1667,55.5 42.5,55.5C 43.9117,57.9801 45.5784,60.3134 47.5,62.5C 46.9953,63.9185 45.9953,64.5852 44.5,64.5C 42.8595,63.853 41.5261,62.853 40.5,61.5C 40.1667,60.8333 39.8333,60.1667 39.5,59.5C 40.675,59.719 41.675,59.3857 42.5,58.5C 41.8728,57.5832 41.5394,56.5832 41.5,55.5 Z"/></g>
<g><path style="opacity:1" fill="#704421" d="M 77.5,42.5 C 82.3554,44.2702 87.3554,45.9369 92.5,47.5C 90.8333,47.5 89.1667,47.5 87.5,47.5C 83.8455,44.99 80.5121,45.3233 77.5,48.5C 77.1667,49 76.8333,49.5 76.5,50C 78.9358,52.8229 80.9358,55.9895 82.5,59.5C 81.2485,61.0009 80.2485,62.6675 79.5,64.5C 77.9223,65.2978 76.2556,65.7978 74.5,66C 73.7476,66.6708 73.4142,67.5041 73.5,68.5C 72.213,69.7683 71.213,69.435 70.5,67.5C 68.5658,67.9005 67.0658,68.9005 66,70.5C 65.5357,69.9056 65.369,69.2389 65.5,68.5C 65.5,68.1667 65.5,67.8333 65.5,67.5C 67.756,65.5747 69.5894,63.2414 71,60.5C 71.3333,60.8333 71.6667,61.1667 72,61.5C 73.1861,59.3234 75.0194,58.3234 77.5,58.5C 75.6628,54.6616 73.6628,50.8283 71.5,47C 75.2126,45.8372 75.2126,44.3372 71.5,42.5C 73.326,42.0798 75.326,42.0798 77.5,42.5 Z"/></g>
<g><path style="opacity:1" fill="#9f6e45" d="M 15.5,53.5 C 17.0665,56.2827 18.8999,58.9493 21,61.5C 21.49,62.7932 21.6567,64.1266 21.5,65.5C 19.2043,63.5994 17.371,61.2661 16,58.5C 14.8908,62.9529 12.0575,64.6195 7.5,63.5C 7.29945,66.7281 7.63278,69.8948 8.5,73C 8.16389,74.0299 7.49722,74.5299 6.5,74.5C 6.17422,72.3393 5.17422,70.5059 3.5,69C 2.1807,68.805 0.847364,68.9717 -0.5,69.5C -0.5,66.8333 -0.5,64.1667 -0.5,61.5C 5.09236,59.2135 10.4257,56.5468 15.5,53.5 Z"/></g>
<g><path style="opacity:1" fill="#c59669" d="M 19.5,53.5 C 21.1153,56.4495 23.1153,59.1162 25.5,61.5C 25.8925,63.2838 26.5592,64.9505 27.5,66.5C 27.6495,67.552 27.4828,68.552 27,69.5C 25.9887,68.6634 24.8221,68.33 23.5,68.5C 23.7148,66.8212 23.0481,65.8212 21.5,65.5C 21.6567,64.1266 21.49,62.7932 21,61.5C 18.8999,58.9493 17.0665,56.2827 15.5,53.5C 15.3691,52.6236 15.7025,51.9569 16.5,51.5C 17.5178,52.1925 18.5178,52.8592 19.5,53.5 Z"/></g>
<g><path style="opacity:1" fill="#96683c" d="M 40.5,61.5 C 41.5261,62.853 42.8595,63.853 44.5,64.5C 44.5,64.8333 44.5,65.1667 44.5,65.5C 42.857,65.4802 41.5237,66.1468 40.5,67.5C 37.5788,66.5934 34.5788,66.2601 31.5,66.5C 31.5,68.1667 31.5,69.8333 31.5,71.5C 30.8724,69.3384 29.539,67.6718 27.5,66.5C 26.5592,64.9505 25.8925,63.2838 25.5,61.5C 24.962,59.8828 24.6287,58.2161 24.5,56.5C 25.5,56.5 26.5,56.5 27.5,56.5C 27.5,57.8333 27.5,59.1667 27.5,60.5C 28.5,60.5 29.5,60.5 30.5,60.5C 30.281,61.675 30.6143,62.675 31.5,63.5C 33.2855,61.0776 34.9522,61.0776 36.5,63.5C 37.5237,62.1468 38.857,61.4802 40.5,61.5 Z"/></g>
<g><path style="opacity:1" fill="#95643b" d="M 21.5,65.5 C 23.0481,65.8212 23.7148,66.8212 23.5,68.5C 26.365,71.6974 28.365,75.3641 29.5,79.5C 28.5,79.5 27.5,79.5 26.5,79.5C 24.4619,75.7364 22.7952,71.7364 21.5,67.5C 20.1667,66.5 18.8333,65.5 17.5,64.5C 16.5713,65.6888 16.238,67.0222 16.5,68.5C 9.75423,66.2714 7.75423,68.6047 10.5,75.5C 8.96859,76.4212 7.63526,76.0878 6.5,74.5C 7.49722,74.5299 8.16389,74.0299 8.5,73C 7.63278,69.8948 7.29945,66.7281 7.5,63.5C 12.0575,64.6195 14.8908,62.9529 16,58.5C 17.371,61.2661 19.2043,63.5994 21.5,65.5 Z"/></g>
<g><path style="opacity:1" fill="#673c1a" d="M 87.5,47.5 C 87.5,47.8333 87.5,48.1667 87.5,48.5C 86.4583,49.7911 85.2917,49.7911 84,48.5C 81.094,50.4036 80.7606,52.7369 83,55.5C 86.0526,57.4301 88.5526,59.9301 90.5,63C 88.8333,63.3333 87.1667,63.6667 85.5,64C 82.5476,66.9891 79.2143,68.4891 75.5,68.5C 77.3821,71.2133 79.0487,74.0467 80.5,77C 80.0017,79.248 79.0017,81.248 77.5,83C 78.4295,84.0769 79.0962,85.2436 79.5,86.5C 76.6158,85.0759 73.9491,84.0759 71.5,83.5C 70.8379,79.5341 70.5045,75.5341 70.5,71.5C 71.5,71.5 72.5,71.5 73.5,71.5C 73.5,70.5 73.5,69.5 73.5,68.5C 73.4142,67.5041 73.7476,66.6708 74.5,66C 76.2556,65.7978 77.9223,65.2978 79.5,64.5C 80.2485,62.6675 81.2485,61.0009 82.5,59.5C 80.9358,55.9895 78.9358,52.8229 76.5,50C 76.8333,49.5 77.1667,49 77.5,48.5C 80.5121,45.3233 83.8455,44.99 87.5,47.5 Z"/></g>
<g><path style="opacity:1" fill="#ad7f55" d="M 27.5,66.5 C 29.539,67.6718 30.8724,69.3384 31.5,71.5C 31.427,73.0269 32.0937,74.0269 33.5,74.5C 33.7036,76.6854 34.3702,78.6854 35.5,80.5C 35.6309,81.3764 35.2975,82.0431 34.5,82.5C 33.0603,81.0476 31.3936,80.0476 29.5,79.5C 28.365,75.3641 26.365,71.6974 23.5,68.5C 24.8221,68.33 25.9887,68.6634 27,69.5C 27.4828,68.552 27.6495,67.552 27.5,66.5 Z"/></g>
<g><path style="opacity:1" fill="#81562c" d="M 53.5,78.5 C 52.0328,78.8938 50.5328,79.2272 49,79.5C 47.1623,78.4646 45.3289,77.4646 43.5,76.5C 40.7272,76.7729 39.0605,78.2729 38.5,81C 39.6094,83.0466 40.2761,85.2133 40.5,87.5C 39.1429,86.4097 38.1429,85.0764 37.5,83.5C 36.8333,82.5 36.1667,81.5 35.5,80.5C 34.3702,78.6854 33.7036,76.6854 33.5,74.5C 33.5,73.5 33.5,72.5 33.5,71.5C 38.5419,72.1258 43.3753,73.4591 48,75.5C 50.5033,74.7625 52.3367,75.7625 53.5,78.5 Z"/></g>
<g><path style="opacity:1" fill="#8e5e35" d="M 26.5,79.5 C 25.5,79.5 24.5,79.5 23.5,79.5C 22.3573,76.3161 21.6906,72.9827 21.5,69.5C 17.4177,69.1211 13.7511,70.1211 10.5,72.5C 13.3857,76.7687 14.5524,81.4354 14,86.5C 12.806,84.4746 11.306,84.1413 9.5,85.5C 7.15982,82.6673 5.49315,79.5006 4.5,76C 2.86586,75.5065 1.19919,75.3398 -0.5,75.5C -0.5,73.5 -0.5,71.5 -0.5,69.5C 0.847364,68.9717 2.1807,68.805 3.5,69C 5.17422,70.5059 6.17422,72.3393 6.5,74.5C 7.63526,76.0878 8.96859,76.4212 10.5,75.5C 7.75423,68.6047 9.75423,66.2714 16.5,68.5C 16.238,67.0222 16.5713,65.6888 17.5,64.5C 18.8333,65.5 20.1667,66.5 21.5,67.5C 22.7952,71.7364 24.4619,75.7364 26.5,79.5 Z"/></g>
<g><path style="opacity:1" fill="#592e10" d="M 99.5,55.5 C 99.5,66.1667 99.5,76.8333 99.5,87.5C 98.1667,87.5 96.8333,87.5 95.5,87.5C 95.5,90.1667 95.5,92.8333 95.5,95.5C 93.8333,95.5 92.1667,95.5 90.5,95.5C 88.8333,95.5 87.1667,95.5 85.5,95.5C 82.6776,90.1043 83.3443,85.1043 87.5,80.5C 86.935,78.5952 85.935,76.9285 84.5,75.5C 84.7093,74.914 85.0426,74.414 85.5,74C 88.8818,73.8236 92.2152,73.3236 95.5,72.5C 95.7913,66.9146 95.7913,61.248 95.5,55.5C 96.8333,55.5 98.1667,55.5 99.5,55.5 Z"/></g>
<g><path style="opacity:1" fill="#9d714a" d="M 29.5,79.5 C 31.3936,80.0476 33.0603,81.0476 34.5,82.5C 35.2975,82.0431 35.6309,81.3764 35.5,80.5C 36.1667,81.5 36.8333,82.5 37.5,83.5C 37.5,84.5 37.5,85.5 37.5,86.5C 36.5,86.5 35.5,86.5 34.5,86.5C 32.2972,84.5831 30.6306,82.2498 29.5,79.5 Z"/></g>
<g><path style="opacity:1" fill="#80532a" d="M 26.5,79.5 C 27.5,79.5 28.5,79.5 29.5,79.5C 30.6306,82.2498 32.2972,84.5831 34.5,86.5C 35.2341,87.7079 35.5674,89.0413 35.5,90.5C 34.5041,90.4142 33.6708,90.7476 33,91.5C 32.5,90.5 32,89.5 31.5,88.5C 29.0829,87.9278 26.9162,86.9278 25,85.5C 23.6841,88.028 22.5174,88.028 21.5,85.5C 20.8076,86.0253 20.3076,86.6919 20,87.5C 18.9207,84.9373 18.4207,82.2706 18.5,79.5C 17.5,79.5 16.5,79.5 15.5,79.5C 16.3397,83.8297 16.8397,88.163 17,92.5C 16.6667,93.1667 16.3333,93.8333 16,94.5C 14.6439,93.6198 13.1439,93.2865 11.5,93.5C 8.23264,89.7227 5.89931,85.3894 4.5,80.5C 2.95467,79.5481 1.28801,79.2148 -0.5,79.5C -0.5,78.1667 -0.5,76.8333 -0.5,75.5C 1.19919,75.3398 2.86586,75.5065 4.5,76C 5.49315,79.5006 7.15982,82.6673 9.5,85.5C 11.306,84.1413 12.806,84.4746 14,86.5C 14.5524,81.4354 13.3857,76.7687 10.5,72.5C 13.7511,70.1211 17.4177,69.1211 21.5,69.5C 21.6906,72.9827 22.3573,76.3161 23.5,79.5C 24.5,79.5 25.5,79.5 26.5,79.5 Z"/></g>
<g><path style="opacity:1" fill="#734923" d="M 73.5,68.5 C 73.5,69.5 73.5,70.5 73.5,71.5C 72.5,71.5 71.5,71.5 70.5,71.5C 70.5045,75.5341 70.8379,79.5341 71.5,83.5C 72.0815,87.3155 71.2482,90.6488 69,93.5C 68.2917,92.6195 67.4584,91.9528 66.5,91.5C 65.791,90.596 64.791,90.2627 63.5,90.5C 61.6096,90.2965 60.1096,90.9632 59,92.5C 55.7746,89.4183 52.1079,88.4183 48,89.5C 47.2904,88.0267 46.1238,87.3601 44.5,87.5C 44.6882,85.8967 44.1882,84.5634 43,83.5C 42.4436,85.8848 42.6103,88.2181 43.5,90.5C 42.2719,89.6935 41.2719,88.6935 40.5,87.5C 40.2761,85.2133 39.6094,83.0466 38.5,81C 39.0605,78.2729 40.7272,76.7729 43.5,76.5C 45.3289,77.4646 47.1623,78.4646 49,79.5C 50.5328,79.2272 52.0328,78.8938 53.5,78.5C 55.3737,79.6418 57.207,80.9752 59,82.5C 59.4643,83.0944 59.631,83.7611 59.5,84.5C 61.7814,85.3385 64.1148,86.3385 66.5,87.5C 67.0057,84.625 67.339,81.7917 67.5,79C 66.552,78.5172 65.552,78.3505 64.5,78.5C 62.9069,74.8541 63.2402,71.5207 65.5,68.5C 65.369,69.2389 65.5357,69.9056 66,70.5C 67.0658,68.9005 68.5658,67.9005 70.5,67.5C 71.213,69.435 72.213,69.7683 73.5,68.5 Z"/></g>
<g><path style="opacity:1" fill="#6a3e21" d="M 71.5,83.5 C 73.9491,84.0759 76.6158,85.0759 79.5,86.5C 79.62,91.0616 79.2866,95.7283 78.5,100.5C 76.3448,100.838 74.0115,100.838 71.5,100.5C 71.5,99.8333 71.5,99.1667 71.5,98.5C 71.5,97.5 71.5,96.5 71.5,95.5C 68.6333,95.6308 66.9666,94.2974 66.5,91.5C 67.4584,91.9528 68.2917,92.6195 69,93.5C 71.2482,90.6488 72.0815,87.3155 71.5,83.5 Z"/></g>
<g><path style="opacity:1" fill="#6d421c" d="M 63.5,90.5 C 62.962,92.1172 62.6287,93.7839 62.5,95.5C 59.5,95.5 56.5,95.5 53.5,95.5C 53.2993,91.65 51.4659,90.65 48,92.5C 47.5172,93.448 47.3505,94.448 47.5,95.5C 45.7263,94.6304 44.393,93.297 43.5,91.5C 43.5,91.1667 43.5,90.8333 43.5,90.5C 42.6103,88.2181 42.4436,85.8848 43,83.5C 44.1882,84.5634 44.6882,85.8967 44.5,87.5C 46.1238,87.3601 47.2904,88.0267 48,89.5C 52.1079,88.4183 55.7746,89.4183 59,92.5C 60.1096,90.9632 61.6096,90.2965 63.5,90.5 Z"/></g>
<g><path style="opacity:1" fill="#754a21" d="M 35.5,90.5 C 35.3398,92.1992 35.5065,93.8659 36,95.5C 39.1667,97.3333 41.6667,99.8333 43.5,103C 47.1075,105.301 48.4408,104.134 47.5,99.5C 49.9515,101.896 50.9515,104.896 50.5,108.5C 47.0193,107.768 43.686,106.434 40.5,104.5C 39.0232,101.326 36.8565,98.6597 34,96.5C 32.0924,99.3323 31.259,98.999 31.5,95.5C 27.1161,95.1744 22.7828,95.5078 18.5,96.5C 18.1207,98.2131 17.1207,99.2131 15.5,99.5C 14.2347,98.5207 12.9014,97.5207 11.5,96.5C 12.7914,95.4728 12.7914,94.4728 11.5,93.5C 13.1439,93.2865 14.6439,93.6198 16,94.5C 16.3333,93.8333 16.6667,93.1667 17,92.5C 16.8397,88.163 16.3397,83.8297 15.5,79.5C 16.5,79.5 17.5,79.5 18.5,79.5C 18.4207,82.2706 18.9207,84.9373 20,87.5C 20.3076,86.6919 20.8076,86.0253 21.5,85.5C 22.5174,88.028 23.6841,88.028 25,85.5C 26.9162,86.9278 29.0829,87.9278 31.5,88.5C 32,89.5 32.5,90.5 33,91.5C 33.6708,90.7476 34.5041,90.4142 35.5,90.5 Z"/></g>
<g><path style="opacity:1" fill="#895d36" d="M 37.5,83.5 C 38.1429,85.0764 39.1429,86.4097 40.5,87.5C 41.2719,88.6935 42.2719,89.6935 43.5,90.5C 43.5,90.8333 43.5,91.1667 43.5,91.5C 43.154,94.6021 43.8207,97.4355 45.5,100C 45,100.167 44.5,100.333 44,100.5C 41.6043,97.7696 39.6043,94.7696 38,91.5C 37.3292,90.7476 36.4959,90.4142 35.5,90.5C 35.5674,89.0413 35.2341,87.7079 34.5,86.5C 35.5,86.5 36.5,86.5 37.5,86.5C 37.5,85.5 37.5,84.5 37.5,83.5 Z"/></g>
<g><path style="opacity:1" fill="#603508" d="M -0.5,95.5 C 3.15807,94.8724 5.65807,96.2057 7,99.5C 7.33333,99.1667 7.66667,98.8333 8,98.5C 9.94889,102.629 11.1156,106.963 11.5,111.5C 9.31359,110.177 7.81359,108.177 7,105.5C 4.53589,106.651 2.03589,107.651 -0.5,108.5C -0.5,104.167 -0.5,99.8333 -0.5,95.5 Z"/></g>
<g><path style="opacity:1" fill="#5a3115" d="M 85.5,95.5 C 87.1667,95.5 88.8333,95.5 90.5,95.5C 91.2927,98.4188 92.6261,101.085 94.5,103.5C 95.48,106.086 95.8134,108.753 95.5,111.5C 92.2538,111.602 89.4205,112.602 87,114.5C 84.8507,114.342 83.0174,113.508 81.5,112C 78.5184,111.502 75.5184,111.335 72.5,111.5C 71.596,110.791 71.2627,109.791 71.5,108.5C 74.1667,108.5 76.8333,108.5 79.5,108.5C 79.5,107.5 79.5,106.5 79.5,105.5C 80.675,105.719 81.675,105.386 82.5,104.5C 83.9634,101.643 84.9634,98.643 85.5,95.5 Z"/></g>
<g><path style="opacity:1" fill="#70441b" d="M -0.5,79.5 C 1.28801,79.2148 2.95467,79.5481 4.5,80.5C 5.89931,85.3894 8.23264,89.7227 11.5,93.5C 12.7914,94.4728 12.7914,95.4728 11.5,96.5C 12.9014,97.5207 14.2347,98.5207 15.5,99.5C 15.5,103.167 15.5,106.833 15.5,110.5C 12.9764,104.107 10.143,97.7735 7,91.5C 5.30911,88.6411 2.80911,87.3077 -0.5,87.5C -0.5,84.8333 -0.5,82.1667 -0.5,79.5 Z"/></g>
<g><path style="opacity:1" fill="#663b15" d="M -0.5,87.5 C 2.80911,87.3077 5.30911,88.6411 7,91.5C 10.143,97.7735 12.9764,104.107 15.5,110.5C 17.4061,112.955 19.7395,114.955 22.5,116.5C 23.4922,112.217 23.8256,107.884 23.5,103.5C 25.4918,103.328 27.1585,103.995 28.5,105.5C 29.8415,103.995 31.5082,103.328 33.5,103.5C 33.238,102.022 33.5713,100.689 34.5,99.5C 35.7472,101.006 35.7472,102.506 34.5,104C 35.1667,104.667 35.8333,105.333 36.5,106C 38.9519,106.29 41.2852,106.956 43.5,108C 46.0739,110.516 48.9072,112.683 52,114.5C 53.5403,112.045 53.8736,109.379 53,106.5C 52.4884,101.956 50.6551,98.2894 47.5,95.5C 47.3505,94.448 47.5172,93.448 48,92.5C 51.4659,90.65 53.2993,91.65 53.5,95.5C 56.5,95.5 59.5,95.5 62.5,95.5C 62.6287,93.7839 62.962,92.1172 63.5,90.5C 64.791,90.2627 65.791,90.596 66.5,91.5C 66.9666,94.2974 68.6333,95.6308 71.5,95.5C 71.5,96.5 71.5,97.5 71.5,98.5C 69.027,98.2009 66.8603,97.2009 65,95.5C 64.5,95.6667 64,95.8333 63.5,96C 65.7843,97.3629 65.951,98.8629 64,100.5C 61.3852,101.311 58.5519,101.311 55.5,100.5C 54.4716,102.44 54.4716,104.44 55.5,106.5C 56.6689,111.345 58.3356,116.011 60.5,120.5C 58.8372,124.081 56.6705,124.414 54,121.5C 51.2626,116.381 47.096,113.048 41.5,111.5C 40.5041,111.586 39.6708,111.252 39,110.5C 36.053,110.909 33.3863,111.909 31,113.5C 30.586,113.043 30.086,112.709 29.5,112.5C 27.2621,113.853 25.9287,115.853 25.5,118.5C 21.5953,120.362 18.5953,119.528 16.5,116C 15.552,115.517 14.552,115.351 13.5,115.5C 13.8432,113.517 13.1765,112.183 11.5,111.5C 11.1156,106.963 9.94889,102.629 8,98.5C 7.66667,98.8333 7.33333,99.1667 7,99.5C 5.65807,96.2057 3.15807,94.8724 -0.5,95.5C -0.5,92.8333 -0.5,90.1667 -0.5,87.5 Z"/></g>
<g><path style="opacity:1" fill="#7d522c" d="M 35.5,90.5 C 36.4959,90.4142 37.3292,90.7476 38,91.5C 39.6043,94.7696 41.6043,97.7696 44,100.5C 44.5,100.333 45,100.167 45.5,100C 43.8207,97.4355 43.154,94.6021 43.5,91.5C 44.393,93.297 45.7263,94.6304 47.5,95.5C 47.5,96.8333 47.5,98.1667 47.5,99.5C 48.4408,104.134 47.1075,105.301 43.5,103C 41.6667,99.8333 39.1667,97.3333 36,95.5C 35.5065,93.8659 35.3398,92.1992 35.5,90.5 Z"/></g>
<g><path style="opacity:1" fill="#6d421d" d="M 47.5,99.5 C 47.5,98.1667 47.5,96.8333 47.5,95.5C 50.6551,98.2894 52.4884,101.956 53,106.5C 53.8736,109.379 53.5403,112.045 52,114.5C 48.9072,112.683 46.0739,110.516 43.5,108C 41.2852,106.956 38.9519,106.29 36.5,106C 35.8333,105.333 35.1667,104.667 34.5,104C 35.7472,102.506 35.7472,101.006 34.5,99.5C 33.5713,100.689 33.238,102.022 33.5,103.5C 31.5082,103.328 29.8415,103.995 28.5,105.5C 27.1585,103.995 25.4918,103.328 23.5,103.5C 23.8256,107.884 23.4922,112.217 22.5,116.5C 19.7395,114.955 17.4061,112.955 15.5,110.5C 15.5,106.833 15.5,103.167 15.5,99.5C 17.1207,99.2131 18.1207,98.2131 18.5,96.5C 22.7828,95.5078 27.1161,95.1744 31.5,95.5C 31.259,98.999 32.0924,99.3323 34,96.5C 36.8565,98.6597 39.0232,101.326 40.5,104.5C 43.686,106.434 47.0193,107.768 50.5,108.5C 50.9515,104.896 49.9515,101.896 47.5,99.5 Z"/></g>
<g><path style="opacity:1" fill="#592e04" d="M 11.5,111.5 C 11.9272,115.617 13.4272,119.284 16,122.5C 17.9133,125.28 20.4133,126.947 23.5,127.5C 20.1667,127.5 16.8333,127.5 13.5,127.5C 12.8489,123.378 11.5156,119.545 9.5,116C 6.25378,116.317 2.92045,116.483 -0.5,116.5C -0.5,113.833 -0.5,111.167 -0.5,108.5C 2.03589,107.651 4.53589,106.651 7,105.5C 7.81359,108.177 9.31359,110.177 11.5,111.5 Z"/></g>
<g><path style="opacity:1" fill="#5e340e" d="M 41.5,111.5 C 42.8121,113.479 44.4788,115.145 46.5,116.5C 47.3857,117.325 47.719,118.325 47.5,119.5C 47.4827,121.028 46.816,121.528 45.5,121C 45.1905,117.607 43.5238,115.107 40.5,113.5C 38.7329,118.707 35.0662,120.873 29.5,120C 28.6327,122.506 27.6327,125.006 26.5,127.5C 25.5,127.5 24.5,127.5 23.5,127.5C 20.4133,126.947 17.9133,125.28 16,122.5C 13.4272,119.284 11.9272,115.617 11.5,111.5C 13.1765,112.183 13.8432,113.517 13.5,115.5C 14.552,115.351 15.552,115.517 16.5,116C 18.5953,119.528 21.5953,120.362 25.5,118.5C 25.9287,115.853 27.2621,113.853 29.5,112.5C 30.086,112.709 30.586,113.043 31,113.5C 33.3863,111.909 36.053,110.909 39,110.5C 39.6708,111.252 40.5041,111.586 41.5,111.5 Z"/></g>
<g><path style="opacity:1" fill="#603614" d="M 71.5,98.5 C 71.5,99.1667 71.5,99.8333 71.5,100.5C 73.69,101.374 74.69,103.041 74.5,105.5C 76.1667,105.5 77.8333,105.5 79.5,105.5C 79.5,106.5 79.5,107.5 79.5,108.5C 76.8333,108.5 74.1667,108.5 71.5,108.5C 71.2252,106.158 70.3919,106.158 69,108.5C 68.6667,105.833 68.3333,103.167 68,100.5C 65.1261,101.532 63.6261,103.532 63.5,106.5C 59.7597,105.741 58.093,107.241 58.5,111C 60.8778,116.24 62.5445,121.74 63.5,127.5C 63.631,128.239 63.4643,128.906 63,129.5C 61.1852,128.756 59.3519,128.089 57.5,127.5C 56.9924,125.767 56.159,125.434 55,126.5C 53.2567,124.679 51.7567,122.679 50.5,120.5C 49.675,119.614 48.675,119.281 47.5,119.5C 47.719,118.325 47.3857,117.325 46.5,116.5C 44.4788,115.145 42.8121,113.479 41.5,111.5C 47.096,113.048 51.2626,116.381 54,121.5C 56.6705,124.414 58.8372,124.081 60.5,120.5C 58.3356,116.011 56.6689,111.345 55.5,106.5C 54.4716,104.44 54.4716,102.44 55.5,100.5C 58.5519,101.311 61.3852,101.311 64,100.5C 65.951,98.8629 65.7843,97.3629 63.5,96C 64,95.8333 64.5,95.6667 65,95.5C 66.8603,97.2009 69.027,98.2009 71.5,98.5 Z"/></g>
<g><path style="opacity:1" fill="#542f12" d="M 99.5,87.5 C 99.5,100.833 99.5,114.167 99.5,127.5C 97.4727,127.662 95.4727,127.495 93.5,127C 90.2392,125.317 86.9059,123.817 83.5,122.5C 82.6433,123.736 81.9766,125.069 81.5,126.5C 77.5546,127.491 73.5546,127.824 69.5,127.5C 69.5,129.167 69.5,130.833 69.5,132.5C 64.8333,132.5 60.1667,132.5 55.5,132.5C 55.8807,131.069 56.8807,130.236 58.5,130C 56.8807,129.764 55.8807,128.931 55.5,127.5C 56.1667,127.5 56.8333,127.5 57.5,127.5C 59.3519,128.089 61.1852,128.756 63,129.5C 63.4643,128.906 63.631,128.239 63.5,127.5C 65.1667,127.5 66.8333,127.5 68.5,127.5C 68.5,124.833 68.5,122.167 68.5,119.5C 69.5,119.5 70.5,119.5 71.5,119.5C 71.3398,117.801 71.5065,116.134 72,114.5C 72.6543,115.696 73.1543,115.696 73.5,114.5C 72.8728,113.583 72.5394,112.583 72.5,111.5C 75.5184,111.335 78.5184,111.502 81.5,112C 83.0174,113.508 84.8507,114.342 87,114.5C 89.4205,112.602 92.2538,111.602 95.5,111.5C 95.8134,108.753 95.48,106.086 94.5,103.5C 92.6261,101.085 91.2927,98.4188 90.5,95.5C 92.1667,95.5 93.8333,95.5 95.5,95.5C 95.5,92.8333 95.5,90.1667 95.5,87.5C 96.8333,87.5 98.1667,87.5 99.5,87.5 Z"/></g>
<g><path style="opacity:1" fill="#5b300e" d="M 71.5,108.5 C 71.2627,109.791 71.596,110.791 72.5,111.5C 72.5394,112.583 72.8728,113.583 73.5,114.5C 73.1543,115.696 72.6543,115.696 72,114.5C 71.5065,116.134 71.3398,117.801 71.5,119.5C 70.5,119.5 69.5,119.5 68.5,119.5C 68.5,122.167 68.5,124.833 68.5,127.5C 66.8333,127.5 65.1667,127.5 63.5,127.5C 62.5445,121.74 60.8778,116.24 58.5,111C 58.093,107.241 59.7597,105.741 63.5,106.5C 63.6261,103.532 65.1261,101.532 68,100.5C 68.3333,103.167 68.6667,105.833 69,108.5C 70.3919,106.158 71.2252,106.158 71.5,108.5 Z"/></g>
<g><path style="opacity:1" fill="#542802" d="M 13.5,127.5 C 9.0002,126.193 4.33353,124.526 -0.5,122.5C -0.5,120.5 -0.5,118.5 -0.5,116.5C 2.92045,116.483 6.25378,116.317 9.5,116C 11.5156,119.545 12.8489,123.378 13.5,127.5 Z"/></g>
<g><path style="opacity:1" fill="#5a2f0a" d="M 47.5,119.5 C 48.675,119.281 49.675,119.614 50.5,120.5C 51.7567,122.679 53.2567,124.679 55,126.5C 56.159,125.434 56.9924,125.767 57.5,127.5C 56.8333,127.5 56.1667,127.5 55.5,127.5C 52.0295,128.125 49.1962,127.125 47,124.5C 45.3905,125.147 43.8905,125.98 42.5,127C 37.0683,127.176 31.735,127.343 26.5,127.5C 27.6327,125.006 28.6327,122.506 29.5,120C 35.0662,120.873 38.7329,118.707 40.5,113.5C 43.5238,115.107 45.1905,117.607 45.5,121C 46.816,121.528 47.4827,121.028 47.5,119.5 Z"/></g>
<g><path style="opacity:1" fill="#452101" d="M -0.5,127.5 C 3.69524,127.382 7.69524,128.215 11.5,130C 12.2524,130.671 12.5858,131.504 12.5,132.5C 8.16667,132.5 3.83333,132.5 -0.5,132.5C -0.5,130.833 -0.5,129.167 -0.5,127.5 Z"/></g>
<g><path style="opacity:1" fill="#502805" d="M -0.5,122.5 C 4.33353,124.526 9.0002,126.193 13.5,127.5C 16.8333,127.5 20.1667,127.5 23.5,127.5C 24.5,127.5 25.5,127.5 26.5,127.5C 31.735,127.343 37.0683,127.176 42.5,127C 43.8905,125.98 45.3905,125.147 47,124.5C 49.1962,127.125 52.0295,128.125 55.5,127.5C 55.8807,128.931 56.8807,129.764 58.5,130C 56.8807,130.236 55.8807,131.069 55.5,132.5C 41.1667,132.5 26.8333,132.5 12.5,132.5C 12.5858,131.504 12.2524,130.671 11.5,130C 7.69524,128.215 3.69524,127.382 -0.5,127.5C -0.5,125.833 -0.5,124.167 -0.5,122.5 Z"/></g>
<g><path style="opacity:1" fill="#4c290b" d="M 99.5,127.5 C 99.5,129.167 99.5,130.833 99.5,132.5C 89.5,132.5 79.5,132.5 69.5,132.5C 69.5,130.833 69.5,129.167 69.5,127.5C 73.5546,127.824 77.5546,127.491 81.5,126.5C 81.9766,125.069 82.6433,123.736 83.5,122.5C 86.9059,123.817 90.2392,125.317 93.5,127C 95.4727,127.495 97.4727,127.662 99.5,127.5 Z"/></g>
</svg>